# xmcd CD database file
#
# Track frame offsets:
#	150
#	16968
#	36526
#	57334
#	95520
#	110222
#	126188
#	159854
#	189965
#	204502
#	230571
#	267783
#	286316
#
# Disc length: 3908 seconds
#
# Revision: 0
# Processed by: cddbd v1.5.2PL0 Copyright (c) Steve Scherf et al.
# Submitted via: CDex 1.51
#
DISCID=b60f420d
DTITLE=Bobby Matos - Acknowledgement
DYEAR=2005
DGENRE=Jazz
TTITLE0=Manhattan Mozambique
TTITLE1=Cuando Baila Ramon
TTITLE2=Song for Jud
TTITLE3=A Love Supreme - Acknowledgement
TTITLE4=Motivos de Jazz
TTITLE5=Songoro
TTITLE6=Tunji
TTITLE7=Chango's Jazz
TTITLE8=Soy Lucumi
TTITLE9=Evelyn
TTITLE10=Equinox
TTITLE11=Chango's Charanga
TTITLE12=Drum Dance
EXTD=YEAR: 2005
EXTT0=
EXTT1=
EXTT2=
EXTT3=
EXTT4=
EXTT5=
EXTT6=
EXTT7=
EXTT8=
EXTT9=
EXTT10=
EXTT11=
EXTT12=
PLAYORDER=
